<svg aria-hidden="true" style="position: absolute; width: 0; height: 0; overflow: hidden;" version="1.1" xmlns="http://www.w3.org/2000/svg" xmlns:xlink="http://www.w3.org/1999/xlink">
<defs>
 <symbol id="delete" viewBox="0 0 22 22">
      <path d="M8 25.333C8 26.8 9.2 28 10.667 28h10.667c1.467 0 2.667-1.2 2.667-2.667v-16h-16v16zm17.333-20h-4.667L19.333 4h-6.667l-1.333 1.333H6.666V8h18.667V5.333z" />
    </symbol>
<symbol id="icon-facebook-1" viewBox="-15 0 64 32">
<path d="M21.329 5.313h2.921v-5.088c-0.504-0.069-2.237-0.225-4.256-0.225-4.212 0-7.097 2.649-7.097 7.519v4.481h-4.648v5.688h4.648v14.312h5.699v-14.311h4.46l0.708-5.688h-5.169v-3.919c0.001-1.644 0.444-2.769 2.735-2.769v0z"></path>
</symbol>

<symbol id="icon-instagram-2" viewBox="-16 -16 64 64">
<path  d="M31.969 9.408c-0.075-1.7-0.35-2.869-0.744-3.882-0.406-1.075-1.032-2.038-1.851-2.838-0.8-0.813-1.769-1.444-2.832-1.844-1.019-0.394-2.182-0.669-3.882-0.744-1.713-0.081-2.257-0.1-6.601-0.1s-4.888 0.019-6.595 0.094c-1.7 0.075-2.869 0.35-3.882 0.744-1.075 0.406-2.038 1.031-2.838 1.85-0.813 0.8-1.444 1.769-1.844 2.832-0.394 1.019-0.669 2.182-0.744 3.882-0.081 1.713-0.1 2.257-0.1 6.601s0.019 4.888 0.094 6.595c0.075 1.7 0.35 2.869 0.744 3.882 0.406 1.075 1.038 2.038 1.85 2.838 0.8 0.813 1.769 1.444 2.832 1.844 1.019 0.394 2.182 0.669 3.882 0.744 1.706 0.075 2.25 0.094 6.595 0.094s4.888-0.019 6.595-0.094c1.7-0.075 2.869-0.35 3.882-0.744 2.151-0.832 3.851-2.532 4.682-4.682 0.394-1.019 0.669-2.182 0.744-3.882 0.075-1.707 0.094-2.251 0.094-6.595s-0.006-4.888-0.081-6.595zM29.087 22.473c-0.069 1.563-0.331 2.407-0.55 2.969-0.538 1.394-1.644 2.5-3.038 3.038-0.563 0.219-1.413 0.481-2.969 0.55-1.688 0.075-2.194 0.094-6.464 0.094s-4.782-0.019-6.464-0.094c-1.563-0.069-2.407-0.331-2.969-0.55-0.694-0.256-1.325-0.663-1.838-1.194-0.531-0.519-0.938-1.144-1.194-1.838-0.219-0.563-0.481-1.413-0.55-2.969-0.075-1.688-0.094-2.194-0.094-6.464s0.019-4.782 0.094-6.464c0.069-1.563 0.331-2.407 0.55-2.969 0.256-0.694 0.663-1.325 1.2-1.838 0.519-0.531 1.144-0.938 1.838-1.194 0.563-0.219 1.413-0.481 2.969-0.55 1.688-0.075 2.194-0.094 6.464-0.094 4.276 0 4.782 0.019 6.464 0.094 1.563 0.069 2.407 0.331 2.969 0.55 0.694 0.256 1.325 0.662 1.838 1.194 0.531 0.519 0.938 1.144 1.194 1.838 0.219 0.563 0.481 1.413 0.55 2.969 0.075 1.688 0.094 2.194 0.094 6.464s-0.019 4.77-0.094 6.458z"></path>
<path  d="M16.059 7.783c-4.538 0-8.22 3.682-8.22 8.22s3.682 8.22 8.22 8.22c4.539 0 8.22-3.682 8.22-8.22s-3.682-8.22-8.22-8.22zM16.059 21.335c-2.944 0-5.332-2.388-5.332-5.332s2.388-5.332 5.332-5.332c2.944 0 5.332 2.388 5.332 5.332s-2.388 5.332-5.332 5.332v0z"></path>
<path  d="M26.524 7.458c0 1.060-0.859 1.919-1.919 1.919s-1.919-0.859-1.919-1.919c0-1.060 0.859-1.919 1.919-1.919s1.919 0.859 1.919 1.919v0z"></path>
</symbol>
<symbol id="icon-linkedin-1" viewBox="-15 0 64 32">
<path d="M31.992 32v-0.001h0.008v-11.736c0-5.741-1.236-10.164-7.948-10.164-3.227 0-5.392 1.771-6.276 3.449h-0.093v-2.913h-6.364v21.364h6.627v-10.579c0-2.785 0.528-5.479 3.977-5.479 3.399 0 3.449 3.179 3.449 5.657v10.401h6.62z"></path>
<path  d="M0.528 10.636h6.635v21.364h-6.635v-21.364z"></path>
<path  d="M3.843 0c-2.121 0-3.843 1.721-3.843 3.843s1.721 3.879 3.843 3.879c2.121 0 3.843-1.757 3.843-3.879-0.001-2.121-1.723-3.843-3.843-3.843v0z"></path>
</symbol>
<symbol id="icon-twitter-1" viewBox="-15 0 64 32">
<path  d="M32 6.078c-1.19 0.522-2.458 0.868-3.78 1.036 1.36-0.812 2.398-2.088 2.886-3.626-1.268 0.756-2.668 1.29-4.16 1.588-1.204-1.282-2.92-2.076-4.792-2.076-3.632 0-6.556 2.948-6.556 6.562 0 0.52 0.044 1.020 0.152 1.496-5.454-0.266-10.28-2.88-13.522-6.862-0.566 0.982-0.898 2.106-0.898 3.316 0 2.272 1.17 4.286 2.914 5.452-1.054-0.020-2.088-0.326-2.964-0.808 0 0.020 0 0.046 0 0.072 0 3.188 2.274 5.836 5.256 6.446-0.534 0.146-1.116 0.216-1.72 0.216-0.42 0-0.844-0.024-1.242-0.112 0.85 2.598 3.262 4.508 6.13 4.57-2.232 1.746-5.066 2.798-8.134 2.798-0.538 0-1.054-0.024-1.57-0.090 2.906 1.874 6.35 2.944 10.064 2.944 12.072 0 18.672-10 18.672-18.668 0-0.29-0.010-0.57-0.024-0.848 1.302-0.924 2.396-2.078 3.288-3.406z"></path>
</symbol>
<symbol id="icon-antenna-1" viewBox="-7 0 46 32">
<path  d="M30.773 22.098l-8.443-8.505 0.937-4.615c0.242 0.094 0.499 0.144 0.758 0.146h0.006c1.192 0.014 2.17-0.941 2.184-2.133s-0.941-2.17-2.133-2.184c-1.192-0.014-2.17 0.941-2.184 2.133-0.003 0.255 0.039 0.509 0.125 0.749l-4.96 0.605-8.091-8.133c-0.099-0.101-0.235-0.159-0.377-0.16-0.14 0.001-0.274 0.056-0.373 0.155l-1.513 1.504c-0.208 0.208-0.208 0.546 0 0.754l0.814 0.826c-3.153 5.798-2.129 12.978 2.519 17.663 0.043 0.041 0.092 0.074 0.146 0.098-0.034 0.18-0.051 0.364-0.052 0.547v6.187h-6.4c-1.472 0.002-2.665 1.195-2.667 2.667v1.067c0 0.295 0.239 0.533 0.533 0.533h24.533c0.295 0 0.533-0.239 0.533-0.533v-1.067c-0.002-1.472-1.195-2.665-2.667-2.667h-6.4v-2.742c1.003 0.21 2.024 0.317 3.049 0.32 2.458-0.003 4.877-0.615 7.040-1.783l0.818 0.823c0.099 0.101 0.235 0.159 0.377 0.16 0.14-0.001 0.274-0.056 0.373-0.155l1.513-1.504c0.208-0.208 0.208-0.546 0-0.754zM23.28 6.233c0.418-0.415 1.093-0.414 1.508 0.004s0.414 1.093-0.004 1.508c-0.2 0.199-0.47 0.31-0.752 0.31h-0.003c-0.589-0.003-1.064-0.483-1.061-1.072 0.002-0.282 0.115-0.552 0.314-0.751h-0.002zM22.024 9.738l-0.598 2.946-1.175-1.182 1.774-1.763zM21.419 8.836l-1.92 1.909-1.485-1.493 3.405-0.415zM24.004 28.8c0.884 0 1.6 0.716 1.6 1.6v0.533h-23.467v-0.533c0-0.884 0.716-1.6 1.6-1.6h20.267zM16.537 26.667v1.067h-5.333v-1.067h5.333zM11.204 25.6v-4.053c0-1.294 1.196-2.347 2.667-2.347s2.667 1.053 2.667 2.347v4.053h-5.333zM17.604 23.904v-2.357c0-1.882-1.675-3.413-3.733-3.413-1.331-0.020-2.576 0.657-3.281 1.786-4.058-4.274-4.971-10.645-2.279-15.887l18.602 18.708c-2.872 1.461-6.165 1.873-9.309 1.163zM28.893 23.22l-21.057-21.181 0.755-0.752 7.935 7.98c0.004 0 0.006 0.007 0.010 0.010l13.115 13.191-0.757 0.752z"></path>
<path  d="M13.876 20.267h-0.005c-0.884-0.001-1.601 0.714-1.602 1.598s0.714 1.601 1.598 1.602h0.005c0.884 0.001 1.601-0.714 1.602-1.598s-0.714-1.601-1.598-1.602zM14.249 22.245c-0.1 0.1-0.236 0.156-0.378 0.155-0.295-0.002-0.532-0.242-0.531-0.536 0.001-0.141 0.057-0.276 0.157-0.375s0.233-0.154 0.373-0.155c0.295 0.002 0.532 0.241 0.53 0.536-0.001 0.141-0.057 0.276-0.157 0.375h0.005z"></path>
</symbol>
<symbol id="icon-astronaut-1" viewBox="-7 0 46 32">
<path fill="#2196f3" style="fill: var(--color4, #2196f3)" d="M31.974 4.524c-0.063-0.193-0.229-0.333-0.43-0.363l-1.91-0.278-0.855-1.731c-0.179-0.365-0.777-0.365-0.956 0l-0.855 1.731-1.91 0.278c-0.201 0.029-0.367 0.17-0.431 0.363-0.062 0.193-0.011 0.405 0.135 0.547l1.383 1.348-0.326 1.903c-0.034 0.2 0.048 0.402 0.212 0.522 0.166 0.121 0.382 0.135 0.562 0.040l1.709-0.899 1.709 0.899c0.078 0.041 0.164 0.061 0.249 0.061 0.11 0 0.221-0.034 0.314-0.102 0.164-0.119 0.246-0.322 0.212-0.522l-0.326-1.903 1.383-1.348c0.145-0.142 0.197-0.354 0.135-0.547zM29.511 5.851c-0.125 0.122-0.183 0.299-0.153 0.472l0.191 1.114-1-0.526c-0.078-0.041-0.163-0.061-0.249-0.061s-0.17 0.020-0.249 0.061l-1.001 0.526 0.191-1.114c0.030-0.173-0.028-0.349-0.153-0.472l-0.81-0.789 1.119-0.163c0.174-0.025 0.324-0.134 0.402-0.292l0.5-1.013 0.5 1.013c0.078 0.157 0.228 0.267 0.402 0.292l1.119 0.163-0.809 0.789z"></path>
<path fill="#2196f3" style="fill: var(--color4, #2196f3)" d="M26.134 20.522h-1.067v1.067h1.067v-1.067z"></path>
<path fill="#2196f3" style="fill: var(--color4, #2196f3)" d="M26.134 22.656h-1.067v1.067h1.067v-1.067z"></path>
<path fill="#2196f3" style="fill: var(--color4, #2196f3)" d="M27.2 21.589h-1.067v1.067h1.067v-1.067z"></path>
<path fill="#2196f3" style="fill: var(--color4, #2196f3)" d="M25.067 21.589h-1.067v1.067h1.067v-1.067z"></path>
<path fill="#2196f3" style="fill: var(--color4, #2196f3)" d="M22.4 26.389h-1.067v1.067h1.067v-1.067z"></path>
<path fill="#2196f3" style="fill: var(--color4, #2196f3)" d="M22.4 28.522h-1.067v1.067h1.067v-1.067z"></path>
<path fill="#2196f3" style="fill: var(--color4, #2196f3)" d="M23.467 27.456h-1.067v1.067h1.067v-1.067z"></path>
<path fill="#2196f3" style="fill: var(--color4, #2196f3)" d="M21.333 27.456h-1.067v1.067h1.067v-1.067z"></path>
<path fill="#2196f3" style="fill: var(--color4, #2196f3)" d="M16 24.256h-1.067v1.067h1.067v-1.067z"></path>
<path fill="#2196f3" style="fill: var(--color4, #2196f3)" d="M16 26.389h-1.067v1.067h1.067v-1.067z"></path>
<path fill="#2196f3" style="fill: var(--color4, #2196f3)" d="M17.067 25.322h-1.067v1.067h1.067v-1.067z"></path>
<path fill="#2196f3" style="fill: var(--color4, #2196f3)" d="M14.933 25.322h-1.067v1.067h1.067v-1.067z"></path>
<path fill="#2196f3" style="fill: var(--color4, #2196f3)" d="M5.867 6.122h-1.067v1.067h1.067v-1.067z"></path>
<path fill="#2196f3" style="fill: var(--color4, #2196f3)" d="M5.867 8.255h-1.067v1.067h1.067v-1.067z"></path>
<path fill="#2196f3" style="fill: var(--color4, #2196f3)" d="M6.933 7.189h-1.067v1.067h1.067v-1.067z"></path>
<path fill="#2196f3" style="fill: var(--color4, #2196f3)" d="M4.8 7.189h-1.067v1.067h1.067v-1.067z"></path>
<path fill="#212121" style="fill: var(--color3, #212121)" d="M24.715 14.159c-0.287-0.388-0.709-0.637-1.188-0.705-0.481-0.068-0.956 0.058-1.34 0.352l-1.252 0.96-1.898 1.417-1.358-0.541c2.421-1.086 4.114-3.508 4.114-6.32 0-3.823-3.123-6.933-6.961-6.933s-6.961 3.11-6.961 6.933c0 1.386 0.414 2.674 1.12 3.758l-2.764-0.024c-0.002 0-0.003 0-0.005 0-0.009 0-0.015 0.004-0.023 0.005-0.053 0.002-0.105 0.013-0.155 0.031-0.013 0.005-0.026 0.008-0.038 0.013-0.006 0.003-0.013 0.003-0.019 0.006l-3.233 1.596c-0.001 0-0.001 0-0.001 0.001l-1.893 0.911c-0.021 0.009-0.042 0.021-0.063 0.035-0.755 0.502-1.012 1.489-0.598 2.295 0.22 0.429 0.595 0.745 1.056 0.889 0.178 0.055 0.359 0.083 0.539 0.083 0.29 0 0.577-0.071 0.839-0.211l1.388-0.738 2.264-1.169 1.357-0.008-5.442 5.416c-0.001 0.001-0.001 0.001-0.002 0.001l-1.339 1.333c-0.316 0.315-0.49 0.732-0.49 1.178s0.174 0.863 0.49 1.179c0.325 0.323 0.752 0.485 1.179 0.485s0.854-0.162 1.18-0.485l1.314-1.309 1.741-1.3 0.901 0.897-1.762 1.754c-0 0.001-0.001 0.001-0.002 0.001l-1.339 1.333c-0.316 0.315-0.49 0.732-0.49 1.178s0.174 0.863 0.49 1.179c0.325 0.323 0.753 0.485 1.18 0.485s0.855-0.162 1.18-0.485l3.482-3.467c0.001-0.001 0.001-0.001 0.001-0.002l1.010-1-0.004-0.004c0.006-0.006 0.015-0.009 0.022-0.015l5.166-5.658 3.471 0.494c0.025 0.004 0.050 0.005 0.075 0.005 0.065 0 0.127-0.015 0.187-0.038 0.018-0.006 0.033-0.015 0.050-0.023 0.019-0.010 0.039-0.015 0.058-0.027l3.213-2.133c0.012-0.008 0.018-0.021 0.029-0.029 0.013-0.010 0.029-0.014 0.041-0.026l1.271-1.191c0.662-0.62 0.753-1.635 0.212-2.362zM2.13 17.77c-0.173 0.093-0.37 0.111-0.558 0.052-0.187-0.058-0.338-0.186-0.427-0.358-0.161-0.314-0.068-0.695 0.214-0.902l1.314-0.632 0.449 1.313-0.992 0.527zM5.628 15.942l-1.548 0.8-0.439-1.283 2.027-1.001-0.040 1.484zM20.727 9.322c0 0.918-0.219 1.785-0.599 2.559l-4.181-1.899c-0.044-0.573-0.341-1.075-0.788-1.388l1.464-4.86c2.378 0.756 4.105 2.974 4.105 5.588zM8.938 9.322c0-3.235 2.644-5.867 5.894-5.867 0.253 0 0.5 0.021 0.745 0.052l-1.432 4.754c-0.019-0.001-0.037-0.006-0.057-0.006-1.033 0-1.873 0.837-1.873 1.867s0.84 1.867 1.873 1.867c0.694 0 1.294-0.383 1.618-0.945l3.862 1.755c-1.075 1.446-2.795 2.39-4.737 2.39-3.25 0-5.894-2.632-5.894-5.867zM14.894 10.122c0 0.441-0.362 0.8-0.806 0.8s-0.806-0.359-0.806-0.8c0-0.441 0.362-0.8 0.806-0.8s0.806 0.359 0.806 0.8zM2.465 25.146c-0.236 0.234-0.619 0.234-0.854 0.001-0.114-0.114-0.176-0.263-0.176-0.423s0.062-0.309 0.176-0.421l0.962-0.959 0.851 0.848-0.959 0.955zM5.679 28.88c-0.236 0.234-0.619 0.235-0.855 0.001-0.114-0.114-0.176-0.263-0.176-0.423s0.062-0.309 0.176-0.421l0.963-0.959 0.852 0.848-0.96 0.955zM9.16 25.411c-0.001 0-0.001 0-0.002 0.001l-1.765 1.76-0.852-0.848 1.763-1.755c0 0 0 0 0-0s0.001-0.001 0.002-0.001c0.040-0.040 0.065-0.088 0.090-0.135 0.007-0.014 0.020-0.026 0.026-0.040 0.017-0.041 0.019-0.085 0.026-0.129 0.003-0.025 0.014-0.047 0.014-0.073 0-0.036-0.013-0.070-0.020-0.106-0.006-0.032-0.006-0.065-0.019-0.095-0.020-0.050-0.055-0.094-0.091-0.138-0.010-0.012-0.014-0.027-0.025-0.038 0 0 0 0-0.001 0s-0.001-0.002-0.001-0.002l-1.607-1.6c-0.017-0.017-0.039-0.024-0.058-0.038-0.028-0.022-0.055-0.042-0.087-0.058-0.030-0.015-0.061-0.024-0.093-0.033-0.034-0.010-0.067-0.017-0.103-0.020-0.033-0.002-0.063 0.001-0.095 0.005-0.036 0.004-0.069 0.009-0.104 0.020-0.034 0.011-0.063 0.027-0.094 0.045-0.020 0.011-0.042 0.015-0.061 0.029l-1.773 1.324-0.901-0.897 2.399-2.386 4.361 4.289-0.928 0.919zM15.979 18.394c-0.015-0.002-0.030 0.004-0.045 0.003-0.039-0.002-0.076 0.001-0.115 0.007-0.030 0.005-0.059 0.011-0.088 0.021-0.034 0.012-0.065 0.028-0.097 0.047-0.030 0.018-0.057 0.037-0.083 0.061-0.013 0.011-0.028 0.017-0.040 0.029l-4.698 5.146-4.328-4.257 2.833-2.818c0.209-0.208 0.21-0.546 0.002-0.755-0.105-0.105-0.243-0.157-0.381-0.156v-0.001l-2.219 0.013 0.028-1.607 3.104 0.027c1.265 1.294 3.029 2.101 4.981 2.101 0.437 0 0.864-0.045 1.279-0.123 0.040 0.032 0.079 0.065 0.13 0.085l2.41 0.96 0.152 0.758 0.178 0.885-3.003-0.427zM20.020 18.572l-0.313-1.558 1.446-1.080 0.947 1.257-2.080 1.381zM23.774 15.741l-0.838 0.785-0.931-1.236 0.831-0.637c0.155-0.119 0.351-0.168 0.543-0.143 0.193 0.027 0.364 0.128 0.48 0.284 0.217 0.292 0.18 0.699-0.085 0.947z"></path>
<path fill="#212121" style="fill: var(--color3, #212121)" d="M13.602 18.544l-2.143-2.133c-0.207-0.207-0.545-0.207-0.753 0l-2.142 2.133c-0.1 0.101-0.157 0.236-0.157 0.378s0.056 0.278 0.157 0.378l2.142 2.133c0.104 0.103 0.241 0.155 0.377 0.155s0.273-0.052 0.376-0.155l2.143-2.133c0.1-0.1 0.157-0.236 0.157-0.378s-0.057-0.278-0.157-0.378zM11.083 20.303l-1.387-1.381 1.387-1.381 1.387 1.381-1.387 1.381z"></path>
<path fill="#212121" style="fill: var(--color3, #212121)" d="M17.164 5.071l-0.258 1.036c0.071 0.018 1.738 0.452 1.738 2.149h1.067c-0-2.017-1.666-2.965-2.547-3.185z"></path>
<path fill="#212121" style="fill: var(--color3, #212121)" d="M19.711 9.322h-1.067v1.067h1.067v-1.067z"></path>
</symbol>
<symbol id="icon-clock-1" viewBox="-7 0 46 32">
<path fill="#212121" style="fill: var(--color3, #212121)" d="M31.297 15.301c-0.002-8.452-6.855-15.303-15.308-15.301s-15.303 6.855-15.301 15.308c0.001 6.658 4.307 12.551 10.649 14.576 0.061 0.019 0.124 0.029 0.187 0.029 0.121-0 0.239-0.032 0.342-0.094 0.135-0.080 0.236-0.207 0.283-0.356l3.865-12.25c1.057-0.005 1.909-0.866 1.903-1.923s-0.866-1.909-1.923-1.903c-0.284 0.001-0.565 0.067-0.82 0.191l-5.106-5.107c-0.253-0.245-0.657-0.238-0.902 0.016-0.239 0.247-0.239 0.639 0 0.886l5.103 5.109c-0.392 0.799-0.168 1.764 0.536 2.309l-3.683 11.673c-7.278-2.681-11.004-10.754-8.323-18.032s10.754-11.004 18.032-8.323 11.004 10.754 8.323 18.032c-1.31 3.556-4.001 6.431-7.462 7.973l-0.398-1.874c-0.073-0.344-0.411-0.565-0.756-0.492-0.109 0.023-0.209 0.074-0.292 0.148l-3.837 3.426c-0.263 0.234-0.287 0.637-0.052 0.9 0.076 0.085 0.174 0.149 0.283 0.184l4.899 1.563c0.335 0.108 0.694-0.077 0.802-0.412 0.034-0.106 0.040-0.219 0.017-0.328l-0.391-1.839c5.664-2.388 9.342-7.942 9.329-14.089zM15.992 14.664c0.352 0 0.638 0.286 0.638 0.638s-0.286 0.638-0.638 0.638c-0.352 0-0.638-0.285-0.638-0.638s0.285-0.638 0.638-0.638zM18.093 29.528l2.184-1.948 0.603 2.84-2.787-0.892z"></path>
<path fill="#2196f3" style="fill: var(--color4, #2196f3)" d="M15.354 3.185v1.275c0 0.352 0.285 0.638 0.638 0.638s0.638-0.285 0.638-0.638v-1.275c0-0.352-0.286-0.638-0.638-0.638s-0.638 0.286-0.638 0.638z"></path>
<path fill="#2196f3" style="fill: var(--color4, #2196f3)" d="M3.876 14.664c-0.352 0-0.638 0.286-0.638 0.638s0.285 0.638 0.638 0.638h1.275c0.352 0 0.638-0.285 0.638-0.638s-0.285-0.638-0.638-0.638h-1.275z"></path>
<path fill="#2196f3" style="fill: var(--color4, #2196f3)" d="M28.108 15.939c0.352 0 0.638-0.285 0.638-0.638s-0.285-0.638-0.638-0.638h-1.275c-0.352 0-0.638 0.286-0.638 0.638s0.286 0.638 0.638 0.638h1.275z"></path>
</symbol>
<symbol id="icon-diagram-1" viewBox="-7 0 46 32">
<path fill="#2196f3" style="fill: var(--color4, #2196f3)" d="M14.926 14.965h1.066v4.798h-1.066v-4.797z"></path>
<path fill="#2196f3" style="fill: var(--color4, #2196f3)" d="M19.19 17.097h1.066v2.665h-1.066v-2.665z"></path>
<path fill="#2196f3" style="fill: var(--color4, #2196f3)" d="M10.661 18.696h1.066v1.066h-1.066v-1.066z"></path>
<path fill="#2196f3" style="fill: var(--color4, #2196f3)" d="M7.463 18.163h1.066v1.599h-1.066v-1.599z"></path>
<path fill="#212121" style="fill: var(--color3, #212121)" d="M1.599 28.291h25.587c0.883 0 1.599-0.716 1.599-1.599v-2.132c0-0.883-0.716-1.599-1.599-1.599h-0.533v-13.293l3.028-2.868c0.703 0.346 1.553 0.136 2.013-0.499s0.396-1.508-0.152-2.068-1.42-0.644-2.065-0.198c-0.644 0.446-0.873 1.292-0.542 2.002l-2.281 2.163v-1.23c0-0.883-0.716-1.599-1.599-1.599h-21.322c-0.883 0-1.599 0.716-1.599 1.599v15.992h-0.533c-0.883 0-1.599 0.716-1.599 1.599v2.132c0 0.883 0.716 1.599 1.599 1.599zM30.384 4.837c0.294 0 0.533 0.239 0.533 0.533s-0.239 0.533-0.533 0.533c-0.294 0-0.533-0.239-0.533-0.533s0.239-0.533 0.533-0.533zM3.198 6.969c0-0.294 0.239-0.533 0.533-0.533h21.322c0.294 0 0.533 0.239 0.533 0.533v2.239l-1.066 1.013v-2.186c0-0.294-0.239-0.533-0.533-0.533h-19.19c-0.294 0-0.533 0.239-0.533 0.533v13.326c0 0.294 0.239 0.533 0.533 0.533h19.19c0.294 0 0.533-0.239 0.533-0.533v-9.674l1.066-1.010v12.284h-22.388v-15.992zM7.996 13.899c-0.721-0.002-1.354 0.478-1.546 1.174s0.105 1.433 0.725 1.801c0.62 0.368 1.41 0.276 1.928-0.226l1.853 0.93c0.215 0.108 0.476 0.057 0.636-0.123l3.939-4.431 3.872 2.901c0.208 0.156 0.498 0.139 0.686-0.039l3.365-3.188v8.131h-18.124v-12.26h18.124v2.66l-3.771 3.572-3.904-2.927c-0.222-0.166-0.534-0.135-0.718 0.072l-3.993 4.493-1.493-0.746c0.011-0.064 0.018-0.129 0.020-0.193 0-0.883-0.716-1.599-1.599-1.599zM8.529 15.498c0 0.294-0.239 0.533-0.533 0.533s-0.533-0.239-0.533-0.533c0-0.294 0.239-0.533 0.533-0.533s0.533 0.239 0.533 0.533zM11.727 24.026h5.331v0.533c0 0.294-0.239 0.533-0.533 0.533h-4.264c-0.294 0-0.533-0.239-0.533-0.533v-0.533zM1.066 24.56c0-0.294 0.239-0.533 0.533-0.533h9.062v0.533c0 0.883 0.716 1.599 1.599 1.599h4.264c0.883 0 1.599-0.716 1.599-1.599v-0.533h9.062c0.294 0 0.533 0.239 0.533 0.533v2.132c0 0.294-0.239 0.533-0.533 0.533h-25.587c-0.294 0-0.533-0.239-0.533-0.533v-2.132z"></path>
</symbol>
<symbol id="icon-envelope" viewBox="220 -1 20 32">
<path  d="M38.667 0h-34.667c-2.206 0-4 1.794-4 4v24c0 2.206 1.794 4 4 4h34.667c2.206 0 4-1.794 4-4v-24c0-2.206-1.794-4-4-4zM38.667 2.667c0.181 0 0.353 0.038 0.511 0.103l-17.844 15.466-17.844-15.466c0.158-0.066 0.33-0.103 0.511-0.103h34.667zM38.667 29.333h-34.667c-0.736 0-1.333-0.598-1.333-1.333v-22.413l17.793 15.421c0.251 0.217 0.563 0.326 0.874 0.326s0.622-0.108 0.874-0.326l17.793-15.421v22.413c0 0.736-0.598 1.333-1.333 1.333z"></path>
</symbol>
<symbol id="icon-Logo-2" viewBox="-42 5 130 32">
<path d="M7.40628 41.1014C7.42219 41.1018 7.43786 41.1049 7.45238 41.1106C7.46689 41.1163 7.47995 41.1245 7.4908 41.1346L7.70892 41.3431C7.53961 41.5118 7.33035 41.6468 7.09546 41.7388C6.82039 41.8391 6.52394 41.8875 6.22572 41.8809C5.94548 41.8859 5.66705 41.8408 5.40777 41.7482C5.17389 41.6632 4.96376 41.5356 4.79159 41.3739C4.61588 41.2062 4.48054 41.0096 4.39353 40.7958C4.29824 40.5574 4.25119 40.3065 4.25448 40.0542C4.25061 39.8003 4.30147 39.548 4.40443 39.3103C4.49968 39.0951 4.64335 38.8986 4.82704 38.7322C5.01321 38.5691 5.23592 38.4408 5.48139 38.3555C5.74992 38.265 6.03588 38.22 6.32387 38.2228C6.59138 38.2172 6.85747 38.2582 7.10637 38.3436C7.32231 38.425 7.52058 38.538 7.69256 38.6777L7.50988 38.9004C7.49726 38.9161 7.48158 38.9297 7.46353 38.9407C7.44198 38.9535 7.41593 38.9594 7.38992 38.9573C7.36162 38.9556 7.33434 38.9474 7.31085 38.9336L7.2127 38.8743L7.07637 38.7985C7.01753 38.7704 6.95649 38.7458 6.8937 38.7251C6.81283 38.6999 6.72989 38.6801 6.64559 38.6659C6.5386 38.6487 6.42992 38.6408 6.32114 38.6422C6.11376 38.6399 5.90796 38.6737 5.71587 38.7417C5.53672 38.8046 5.37501 38.8999 5.24146 39.0212C5.10551 39.1503 5.00074 39.3018 4.93337 39.4667C4.85658 39.6553 4.81874 39.8542 4.82158 40.0542C4.81831 40.2574 4.85615 40.4595 4.93337 40.6513C4.9999 40.8147 5.10272 40.9653 5.23601 41.0943C5.36088 41.2146 5.51567 41.3086 5.6886 41.3692C5.86657 41.4333 6.0576 41.4655 6.25025 41.4639C6.36154 41.4654 6.47278 41.4591 6.58288 41.445C6.76267 41.4259 6.93513 41.3716 7.08728 41.2862C7.16359 41.2425 7.23563 41.1934 7.30267 41.1393C7.3307 41.1161 7.36756 41.1026 7.40628 41.1014V41.1014Z" />
<path d="M13.7044 40.0538C13.7078 40.3052 13.6579 40.5549 13.5571 40.7906C13.4683 41.0043 13.3283 41.1993 13.1465 41.3626C12.9646 41.526 12.745 41.654 12.502 41.7382C11.9682 41.9151 11.3781 41.9151 10.8443 41.7382C10.603 41.6527 10.3848 41.5244 10.2036 41.3615C10.0219 41.1952 9.88089 40.9986 9.78921 40.7835C9.59281 40.3063 9.59281 39.7847 9.78921 39.3076C9.88222 39.0923 10.023 38.8951 10.2036 38.7271C10.3863 38.5694 10.6044 38.446 10.8443 38.3647C11.3775 38.1846 11.9689 38.1846 12.502 38.3647C12.7442 38.4502 12.9633 38.5784 13.1455 38.7414C13.325 38.906 13.4649 39.1001 13.5571 39.3123C13.6582 39.5495 13.7081 39.8009 13.7044 40.0538ZM13.1318 40.0538C13.1361 39.8527 13.1011 39.6525 13.0282 39.4615C12.9671 39.298 12.8678 39.1472 12.7365 39.0185C12.6087 38.8968 12.4513 38.8013 12.2757 38.739C11.8879 38.6095 11.4585 38.6095 11.0706 38.739C10.8951 38.8013 10.7377 38.8968 10.6099 39.0185C10.4767 39.1464 10.3764 39.2974 10.3154 39.4615C10.1767 39.8472 10.1767 40.2604 10.3154 40.6461C10.377 40.81 10.4773 40.9609 10.6099 41.0891C10.7379 41.2101 10.8953 41.3048 11.0706 41.3663C11.4592 41.4925 11.8872 41.4925 12.2757 41.3663C12.4511 41.3048 12.6085 41.2101 12.7365 41.0891C12.8672 40.9601 12.9665 40.8094 13.0282 40.6461C13.1014 40.4552 13.1364 40.2549 13.1318 40.0538V40.0538Z" />
<path d="M18.0013 40.6747L18.0586 40.8074C18.0804 40.76 18.0995 40.7173 18.1213 40.6747C18.1421 40.6302 18.1657 40.5867 18.1922 40.5444L19.5854 38.3438C19.6127 38.3059 19.6372 38.2823 19.6645 38.2751C19.7015 38.2653 19.7403 38.2613 19.779 38.2633H20.1907V41.8425H19.7026V39.2108C19.7026 39.1776 19.7026 39.1397 19.7026 39.0995C19.7 39.0585 19.7 39.0173 19.7026 38.9763L18.3012 41.2077C18.2834 41.2411 18.255 41.2694 18.2192 41.2891C18.1834 41.3089 18.1418 41.3192 18.0995 41.319H18.0204C17.9779 41.3195 17.9362 41.3093 17.9004 41.2895C17.8646 41.2697 17.8362 41.2413 17.8186 41.2077L16.3763 38.9621C16.3763 39.0047 16.3763 39.0474 16.3763 39.09C16.3763 39.1326 16.3763 39.1705 16.3763 39.2037V41.8354H15.9047V38.2633H16.3164C16.355 38.2613 16.3938 38.2653 16.4309 38.2751C16.4647 38.2897 16.4916 38.314 16.5072 38.3438L17.9304 40.5468C17.9584 40.5875 17.9821 40.6303 18.0013 40.6747V40.6747Z" />
<path d="M23.2443 40.4969V41.8376H22.699V38.2632H23.915C24.1446 38.2594 24.3735 38.2857 24.5939 38.3413C24.7704 38.3848 24.9341 38.4607 25.0738 38.564C25.1949 38.6608 25.2883 38.7808 25.3464 38.9146C25.4108 39.0604 25.4423 39.2156 25.4391 39.3717C25.4415 39.5285 25.4072 39.684 25.3383 39.8289C25.2727 39.966 25.172 40.0884 25.0438 40.1866C24.9039 40.2941 24.7395 40.3749 24.5612 40.4234C24.3489 40.4824 24.1269 40.5104 23.9041 40.5063L23.2443 40.4969ZM23.2443 40.1131H23.9041C24.0475 40.1148 24.1901 40.0964 24.3267 40.0587C24.4394 40.0257 24.5433 39.9733 24.6321 39.9047C24.714 39.8391 24.7775 39.7581 24.8175 39.6678C24.8621 39.5723 24.8844 39.4701 24.8829 39.367C24.8893 39.2676 24.8706 39.1683 24.8282 39.0758C24.7859 38.9834 24.7208 38.9 24.6376 38.8317C24.4293 38.6904 24.1676 38.6219 23.9041 38.6398H23.2443V40.1131Z" />
<path d="M30.5731 41.8424H30.1423C30.0991 41.8438 30.0566 41.8321 30.0223 41.8092C29.9914 41.7869 29.9671 41.7585 29.9514 41.7263L29.5806 40.8616H27.7185L27.334 41.7263C27.3199 41.7579 27.2964 41.7857 27.2659 41.8069C27.2312 41.8311 27.1877 41.8437 27.1432 41.8424H26.7124L28.3483 38.2628H28.9154L30.5731 41.8424ZM27.8739 40.5134H29.4116L28.7627 39.0564C28.7131 38.9468 28.6721 38.8344 28.64 38.72L28.5773 38.9072C28.5582 38.964 28.5364 39.0162 28.5173 39.0588L27.8739 40.5134Z" />
<path d="M32.9288 38.2795C32.9614 38.295 32.9894 38.3169 33.0106 38.3434L35.3962 41.0417C35.3962 40.9991 35.3962 40.9564 35.3962 40.9161C35.3962 40.8759 35.3962 40.8356 35.3962 40.7977V38.2629H35.8843V41.8424H35.6116C35.5729 41.8434 35.5345 41.8361 35.4998 41.8211C35.4662 41.804 35.4365 41.7815 35.4126 41.7548L33.0297 39.0589C33.0323 39.0999 33.0323 39.141 33.0297 39.1821C33.0297 39.2223 33.0297 39.2579 33.0297 39.291V41.8424H32.5416V38.2629H32.8306C32.8644 38.2621 32.8979 38.2677 32.9288 38.2795V38.2795Z" />
<path d="M39.9031 40.4188V41.8402H39.3578V40.4188L37.85 38.2631H38.3381C38.3801 38.2609 38.4217 38.2718 38.4553 38.2938C38.485 38.3168 38.5099 38.3441 38.5289 38.3744L39.4723 39.765C39.5105 39.8242 39.5432 39.8787 39.5705 39.9308C39.5977 39.9829 39.6195 40.0327 39.6386 40.0824L39.7095 39.9284C39.736 39.8721 39.7669 39.8175 39.8022 39.765L40.7319 38.3649C40.7515 38.337 40.7753 38.3115 40.8028 38.2891C40.8352 38.2646 40.8772 38.2518 40.9201 38.2536H41.4136L39.9031 40.4188Z"/>
<path d="M17.7314 32.2561C17.9686 32.2822 18.2085 32.3035 18.4512 32.3225C22.13 30.8926 25.2422 28.5523 27.3986 25.5942C29.5551 22.636 30.6602 19.1912 30.5758 15.6904L26.5216 12.1678C27.3459 15.8951 26.9603 19.7482 25.4079 23.2959C23.8555 26.8437 21.1975 29.9461 17.7314 32.2561V32.2561Z" />
<path d="M16.2837 32.0923L16.3928 32.1112C20.0966 29.8094 22.9205 26.5951 24.4993 22.8839C26.078 19.1727 26.3389 15.1353 25.2483 11.2939L19.4737 6.27673C21.8094 10.4008 22.7495 15.0162 22.1848 19.5862C21.6201 24.1562 19.5737 28.493 16.2837 32.0923V32.0923Z" />
<path d="M35.8679 19.8265C34.8868 23.6731 32.5041 27.1423 29.0735 29.7189C28.0716 30.4755 26.9909 31.1496 25.8454 31.7324C28.6389 31.019 31.2065 29.7578 33.3502 28.046C35.494 26.3341 37.1566 24.2174 38.21 21.859L35.8679 19.8265Z" />
<path d="M34.9491 19.2601L31.6146 16.3629C31.5509 19.666 30.4701 22.894 28.4846 25.7114C26.4991 28.5287 23.6814 30.8327 20.3243 32.3837H20.3406C21.0888 32.3835 21.8362 32.3447 22.5791 32.2676C25.7165 31.155 28.488 29.3849 30.6465 27.1152C32.8049 24.8455 34.2831 22.1469 34.9491 19.2601V19.2601Z" />
<path d="M16.7663 4.16091L12.7883 0.699951C9.23222 1.89391 6.1738 3.99283 4.01337 6.72203C1.85294 9.45122 0.69115 12.6835 0.680054 15.9959H0.680054C0.693382 19.656 2.11126 23.2077 4.70929 26.0888C7.30731 28.9699 10.9371 31.016 15.0241 31.903C18.6725 28.041 20.8086 23.2687 21.1219 18.2798C21.4352 13.2908 19.9094 8.34495 16.7663 4.16091V4.16091Z" />
<path d="M44.14 18.7273C44.1257 14.3848 42.1338 10.2238 38.5997 7.15318C35.0655 4.08257 30.2763 2.35199 25.2783 2.33949V2.33949C22.9688 2.33741 20.6789 2.70769 18.5248 3.43153L42.8804 24.5926C43.7144 22.7221 44.1415 20.7333 44.14 18.7273V18.7273Z"/>
</symbol>
<symbol id="icon-Logo-3" viewBox="-13 0 70 32">
<path  d="M12.878 11.255h-0.002c-1.279 0-2.316 0.921-2.316 2.058v0.001c0 1.137 1.037 2.058 2.316 2.058h0.002c1.279 0 2.316-0.921 2.316-2.058v-0.001c0-1.137-1.037-2.058-2.316-2.058z"></path>
<path d="M29.971 10.597c-0.004-1.579-0.711-3.092-1.967-4.208s-2.958-1.745-4.735-1.749v0c-1.777 0.003-3.48 0.631-4.737 1.748s-1.964 2.63-1.968 4.209v8.706c0 0 13.405-1.327 13.406-8.704v-0.001z"></path>
<path  d="M5.867 22.16c0.003 1.098 0.496 2.151 1.369 2.928s2.058 1.215 3.294 1.218c1.236-0.003 2.42-0.441 3.294-1.218s1.366-1.829 1.37-2.927v-6.057c0 0-9.327 0.924-9.327 6.056zM10.53 23.245c-0.242 0-0.478-0.064-0.678-0.183s-0.357-0.289-0.45-0.487c-0.092-0.198-0.117-0.417-0.069-0.627s0.163-0.404 0.334-0.556c0.171-0.152 0.388-0.255 0.625-0.297s0.482-0.020 0.706 0.062c0.223 0.082 0.414 0.221 0.548 0.4s0.206 0.388 0.206 0.603c0.001 0.143-0.031 0.284-0.092 0.417s-0.151 0.252-0.264 0.353c-0.114 0.101-0.248 0.182-0.397 0.236s-0.308 0.083-0.468 0.083v-0.004z"></path>
<path  d="M19.956 22.647h-0.9v0.93h-0.469v-2.275h1.481v0.38h-1.012v0.588h0.9v0.378zM22.209 22.491c0 0.224-0.040 0.42-0.119 0.589s-0.193 0.299-0.341 0.391c-0.147 0.092-0.316 0.137-0.506 0.137-0.189 0-0.357-0.045-0.505-0.136s-0.262-0.22-0.344-0.387c-0.081-0.169-0.122-0.363-0.123-0.581v-0.112c0-0.224 0.040-0.421 0.12-0.591 0.081-0.171 0.195-0.302 0.342-0.392 0.148-0.092 0.317-0.137 0.506-0.137s0.358 0.046 0.505 0.137c0.148 0.091 0.262 0.221 0.342 0.392 0.081 0.17 0.122 0.366 0.122 0.589v0.102zM21.734 22.388c0-0.238-0.043-0.42-0.128-0.544s-0.207-0.186-0.366-0.186c-0.157 0-0.279 0.061-0.364 0.184-0.085 0.122-0.129 0.301-0.13 0.538v0.111c0 0.232 0.043 0.412 0.128 0.541s0.208 0.192 0.369 0.192c0.157 0 0.278-0.061 0.363-0.184 0.084-0.124 0.127-0.304 0.128-0.541v-0.111zM23.73 22.98c0-0.089-0.031-0.156-0.094-0.203-0.063-0.048-0.175-0.098-0.337-0.15-0.163-0.053-0.291-0.105-0.386-0.156-0.258-0.14-0.387-0.328-0.387-0.564 0-0.123 0.034-0.232 0.103-0.328 0.070-0.097 0.169-0.172 0.298-0.227 0.13-0.054 0.276-0.081 0.438-0.081 0.163 0 0.307 0.030 0.434 0.089 0.127 0.058 0.226 0.141 0.295 0.248s0.106 0.229 0.106 0.366h-0.469c0-0.104-0.033-0.185-0.098-0.242s-0.158-0.087-0.277-0.087c-0.115 0-0.204 0.024-0.267 0.073-0.064 0.048-0.095 0.111-0.095 0.191 0 0.074 0.037 0.136 0.111 0.186 0.075 0.050 0.185 0.097 0.33 0.141 0.267 0.080 0.461 0.18 0.583 0.298s0.183 0.267 0.183 0.444c0 0.197-0.075 0.352-0.223 0.464-0.149 0.111-0.349 0.167-0.602 0.167-0.175 0-0.334-0.032-0.478-0.095-0.144-0.065-0.254-0.153-0.33-0.264s-0.113-0.241-0.113-0.388h0.47c0 0.251 0.15 0.377 0.45 0.377 0.111 0 0.198-0.022 0.261-0.067 0.063-0.046 0.094-0.109 0.094-0.191zM26.231 21.682h-0.697v1.895h-0.469v-1.895h-0.687v-0.38h1.853v0.38zM27.869 22.591h-0.9v0.609h1.056v0.377h-1.525v-2.275h1.522v0.38h-1.053v0.542h0.9v0.367zM29.142 22.744h-0.373v0.833h-0.469v-2.275h0.845c0.269 0 0.476 0.060 0.622 0.18s0.219 0.289 0.219 0.508c0 0.155-0.034 0.285-0.102 0.389-0.067 0.103-0.168 0.185-0.305 0.247l0.492 0.93v0.022h-0.503l-0.427-0.833zM28.769 22.365h0.378c0.118 0 0.209-0.030 0.273-0.089 0.065-0.060 0.097-0.143 0.097-0.248 0-0.107-0.031-0.192-0.092-0.253-0.060-0.061-0.154-0.092-0.28-0.092h-0.377v0.683zM31.609 22.775v0.802h-0.469v-2.275h0.887c0.171 0 0.321 0.031 0.45 0.094s0.23 0.152 0.3 0.267c0.070 0.115 0.105 0.245 0.105 0.392 0 0.223-0.077 0.399-0.23 0.528-0.152 0.128-0.363 0.192-0.633 0.192h-0.411zM31.609 22.396h0.419c0.124 0 0.218-0.029 0.283-0.088 0.066-0.058 0.098-0.142 0.098-0.25 0-0.111-0.033-0.202-0.098-0.27s-0.156-0.104-0.272-0.106h-0.43v0.714zM34.575 22.591h-0.9v0.609h1.056v0.377h-1.525v-2.275h1.522v0.38h-1.053v0.542h0.9v0.367zM36.75 21.682h-0.697v1.895h-0.469v-1.895h-0.688v-0.38h1.853v0.38zM38.387 22.591h-0.9v0.609h1.056v0.377h-1.525v-2.275h1.522v0.38h-1.053v0.542h0.9v0.367zM39.661 22.744h-0.373v0.833h-0.469v-2.275h0.845c0.269 0 0.476 0.060 0.622 0.18s0.219 0.289 0.219 0.508c0 0.155-0.034 0.285-0.102 0.389-0.067 0.103-0.168 0.185-0.305 0.247l0.492 0.93v0.022h-0.503l-0.427-0.833zM39.287 22.365h0.378c0.118 0 0.209-0.030 0.273-0.089 0.065-0.060 0.097-0.143 0.097-0.248 0-0.107-0.031-0.192-0.092-0.253-0.060-0.061-0.154-0.092-0.28-0.092h-0.377v0.683zM42.042 22.98c0-0.089-0.031-0.156-0.094-0.203-0.063-0.048-0.175-0.098-0.337-0.15-0.163-0.053-0.291-0.105-0.386-0.156-0.258-0.14-0.388-0.328-0.388-0.564 0-0.123 0.034-0.232 0.103-0.328 0.070-0.097 0.169-0.172 0.298-0.227 0.13-0.054 0.276-0.081 0.438-0.081 0.163 0 0.307 0.030 0.434 0.089 0.127 0.058 0.226 0.141 0.295 0.248 0.071 0.107 0.106 0.229 0.106 0.366h-0.469c0-0.104-0.033-0.185-0.098-0.242s-0.158-0.087-0.277-0.087c-0.115 0-0.204 0.024-0.267 0.073-0.064 0.048-0.095 0.111-0.095 0.191 0 0.074 0.037 0.136 0.111 0.186 0.075 0.050 0.185 0.097 0.33 0.141 0.267 0.080 0.461 0.18 0.583 0.298s0.183 0.267 0.183 0.444c0 0.197-0.074 0.352-0.223 0.464-0.149 0.111-0.349 0.167-0.602 0.167-0.175 0-0.334-0.032-0.478-0.095-0.144-0.065-0.254-0.153-0.33-0.264-0.075-0.111-0.112-0.241-0.112-0.388h0.47c0 0.251 0.15 0.377 0.45 0.377 0.111 0 0.198-0.022 0.261-0.067 0.063-0.046 0.094-0.109 0.094-0.191z"></path>
</symbol>
<symbol id="icon-Logo-4" viewBox="-7 0 70 32">
<path  d="M14.27 23.859c0.13 0.147 0.199 0.332 0.196 0.521 0.007 0.123-0.017 0.247-0.070 0.361s-0.132 0.216-0.233 0.297c-0.252 0.175-0.565 0.26-0.881 0.24h-1.549v-3.302h1.517c0.299-0.018 0.596 0.059 0.84 0.219 0.098 0.075 0.176 0.17 0.227 0.277s0.074 0.224 0.068 0.341c0.009 0.182-0.054 0.361-0.176 0.505-0.118 0.131-0.28 0.222-0.462 0.258 0.205 0.034 0.391 0.134 0.523 0.282zM12.454 23.36h0.648c0.147 0.010 0.294-0.029 0.412-0.11 0.049-0.040 0.087-0.090 0.111-0.146s0.034-0.116 0.028-0.176c0.005-0.060-0.005-0.12-0.029-0.175s-0.061-0.106-0.108-0.147c-0.122-0.083-0.273-0.123-0.425-0.111h-0.638v0.866zM13.578 24.627c0.052-0.041 0.093-0.093 0.12-0.151s0.038-0.121 0.034-0.184c0.004-0.064-0.008-0.127-0.035-0.186s-0.069-0.111-0.121-0.153c-0.127-0.086-0.283-0.128-0.44-0.119h-0.68v0.908h0.689c0.155 0.008 0.309-0.032 0.435-0.114z"></path>
<path  d="M17.371 25.278l-0.844-1.291h-0.317v1.291h-0.726v-3.302h1.374c0.346-0.022 0.689 0.078 0.957 0.281 0.192 0.179 0.308 0.415 0.327 0.666s-0.061 0.499-0.224 0.7c-0.17 0.178-0.401 0.296-0.655 0.336l0.898 1.32h-0.789zM16.21 23.538h0.594c0.412 0 0.618-0.167 0.618-0.5 0.004-0.068-0.007-0.136-0.033-0.2s-0.066-0.122-0.118-0.171c-0.13-0.099-0.298-0.147-0.467-0.134h-0.601l0.007 1.005z"></path>
<path  d="M21.339 24.614h-1.446l-0.255 0.665h-0.761l1.328-3.265h0.823l1.323 3.265h-0.761l-0.25-0.665zM21.145 24.114l-0.529-1.394-0.529 1.394h1.057z"></path>
<path  d="M26.305 25.278h-0.721l-1.616-2.245v2.245h-0.719v-3.302h0.719l1.616 2.258v-2.258h0.721v3.302z"></path>
<path  d="M30.417 24.488c-0.149 0.249-0.376 0.452-0.652 0.582-0.314 0.145-0.662 0.217-1.013 0.208h-1.283v-3.302h1.283c0.351-0.008 0.698 0.061 1.013 0.203 0.276 0.127 0.503 0.328 0.652 0.576 0.148 0.269 0.226 0.565 0.226 0.866s-0.077 0.598-0.226 0.866zM29.593 24.409c0.206-0.219 0.319-0.499 0.319-0.788s-0.113-0.569-0.319-0.788c-0.249-0.199-0.573-0.3-0.902-0.281h-0.5v2.137h0.5c0.329 0.019 0.654-0.082 0.902-0.281z"></path>
<path  d="M21.79 3.609c0 0 9.301 3.215 9.103 7.867v7.869c0 0-9.294-3.217-9.1-7.869l-0.004-7.867z"></path>
<path  d="M39.179 17.503c1.757-1.107 3.788-1.792 5.909-1.994v-2.463c-2.444 0.862-4.517 2.426-5.909 4.457z"></path>
<path  d="M38.124 18.245c1.438-2.651 3.93-4.696 6.964-5.715v-7.098c0 0-13.245 4.58-12.965 11.205v11.203c0 0 0.59-0.205 1.519-0.589 0-0.358 0-0.719 0.042-1.082 0.274-3.076 1.871-5.926 4.44-7.924z"></path>
<path  d="M36.864 22.407c0.070-0.777 0.225-1.546 0.463-2.294-1.599 1.725-2.568 3.866-2.77 6.122-0.019 0.213-0.030 0.426-0.035 0.645 0.752-0.331 1.628-0.744 2.548-1.229-0.235-1.067-0.304-2.159-0.206-3.244z"></path>
<path  d="M37.391 22.447c-0.088 0.982-0.033 1.969 0.164 2.938 3.619-1.983 7.685-5.046 7.528-8.748v-0.323c-2.585 0.265-5.004 1.3-6.885 2.946-0.44 1.020-0.712 2.094-0.807 3.188z"></path>
</symbol>
<symbol id="icon-Logo-5" viewBox="-7 0 70 32">
<path  d="M28.493 14.618c-0.236-0.315-0.349-0.686-0.323-1.061v-1.538c0-0.471 0.107-0.83 0.321-1.075s0.581-0.367 1.102-0.366c0.489 0 0.836 0.104 1.042 0.313 0.224 0.266 0.333 0.592 0.308 0.92v0.361h-0.875v-0.366c0.003-0.12-0.005-0.24-0.025-0.358-0.013-0.081-0.057-0.156-0.125-0.213-0.090-0.061-0.203-0.091-0.317-0.083-0.12-0.008-0.239 0.024-0.333 0.088-0.076 0.063-0.127 0.145-0.145 0.235-0.025 0.126-0.037 0.253-0.034 0.38v1.866c-0.014 0.18 0.025 0.36 0.112 0.524 0.044 0.055 0.104 0.099 0.175 0.127s0.149 0.038 0.226 0.029c0.112 0.008 0.223-0.022 0.31-0.084 0.071-0.061 0.117-0.141 0.13-0.227 0.020-0.124 0.030-0.249 0.027-0.374v-0.379h0.875v0.346c0.025 0.342-0.082 0.682-0.303 0.967-0.201 0.228-0.544 0.343-1.047 0.343s-0.884-0.122-1.1-0.375z"></path>
<path  d="M32.137 14.633c-0.221-0.239-0.332-0.588-0.332-1.050v-1.617c0-0.457 0.11-0.802 0.332-1.037s0.591-0.351 1.109-0.35c0.515 0 0.882 0.117 1.103 0.35 0.221 0.235 0.333 0.58 0.333 1.037v1.617c0 0.457-0.112 0.807-0.337 1.048s-0.591 0.361-1.1 0.361c-0.509 0-0.886-0.122-1.109-0.36zM33.654 14.245c0.079-0.15 0.115-0.314 0.105-0.479v-1.98c0.010-0.161-0.025-0.322-0.103-0.469-0.044-0.057-0.106-0.101-0.179-0.129s-0.152-0.037-0.231-0.027c-0.079-0.009-0.159 0-0.231 0.028s-0.135 0.072-0.18 0.129c-0.080 0.146-0.116 0.308-0.105 0.469v1.99c-0.011 0.165 0.025 0.329 0.105 0.479 0.051 0.050 0.114 0.091 0.185 0.119s0.147 0.042 0.225 0.042c0.078 0 0.154-0.014 0.225-0.042s0.134-0.068 0.185-0.119v-0.009z"></path>
<path  d="M35.735 10.626h0.942l0.708 2.984 0.725-2.984h0.917l0.092 4.308h-0.678l-0.072-2.994-0.699 2.994h-0.544l-0.725-3.005-0.067 3.005h-0.685l0.085-4.308z"></path>
<path  d="M40.176 10.626h1.468c0.846 0 1.268 0.408 1.268 1.223 0 0.781-0.445 1.171-1.335 1.17h-0.5v1.915h-0.906l0.005-4.308zM41.43 12.467c0.090 0.010 0.18 0.003 0.266-0.021s0.165-0.063 0.232-0.115c0.104-0.146 0.15-0.316 0.13-0.486 0.005-0.131-0.010-0.263-0.044-0.391-0.013-0.043-0.036-0.083-0.067-0.118s-0.070-0.065-0.114-0.087c-0.126-0.052-0.265-0.076-0.404-0.069h-0.352v1.287h0.352z"></path>
<path  d="M44.218 10.626h0.973l0.998 4.308h-0.844l-0.197-0.993h-0.868l-0.203 0.993h-0.857l0.998-4.308zM45.050 13.441l-0.339-1.808-0.339 1.808h0.678z"></path>
<path  d="M46.996 10.626h0.634l1.214 2.457v-2.457h0.752v4.308h-0.603l-1.221-2.565v2.565h-0.777l0.002-4.308z"></path>
<path  d="M51.357 13.291l-1.009-2.659h0.85l0.616 1.708 0.578-1.708h0.832l-0.997 2.659v1.642h-0.87v-1.642z"></path>
<path  d="M29.892 16.817v0.225h-0.739v1.75h-0.31v-1.75h-0.743v-0.225h1.792z"></path>
<path  d="M32.209 18.793h-0.239c-0.024 0.001-0.048-0.005-0.067-0.019-0.018-0.011-0.032-0.027-0.040-0.045l-0.214-0.469h-1.026l-0.214 0.469c-0.006 0.020-0.017 0.038-0.033 0.053-0.019 0.013-0.043 0.020-0.067 0.019h-0.239l0.906-1.976h0.315l0.917 1.968zM30.709 18.059h0.855l-0.362-0.804c-0.027-0.061-0.049-0.123-0.067-0.186-0.013 0.038-0.024 0.073-0.034 0.105l-0.033 0.083-0.359 0.802z"></path>
<path  d="M33.771 18.599c0.057 0.003 0.114 0.003 0.17 0 0.049-0.004 0.097-0.012 0.145-0.023 0.044-0.009 0.088-0.021 0.13-0.036 0.040-0.014 0.080-0.031 0.121-0.048v-0.444h-0.362c-0.009 0-0.018-0.001-0.026-0.003s-0.016-0.007-0.023-0.012c-0.006-0.004-0.011-0.010-0.014-0.016s-0.005-0.013-0.004-0.020v-0.152h0.703v0.757c-0.057 0.035-0.118 0.067-0.181 0.094-0.065 0.028-0.132 0.050-0.201 0.067-0.074 0.019-0.15 0.032-0.227 0.041-0.088 0.008-0.176 0.013-0.264 0.012-0.156 0.001-0.311-0.024-0.457-0.073-0.136-0.047-0.259-0.117-0.362-0.206-0.101-0.090-0.18-0.196-0.234-0.313-0.057-0.131-0.085-0.27-0.083-0.41-0.002-0.141 0.026-0.281 0.082-0.413 0.052-0.117 0.132-0.224 0.234-0.313 0.103-0.089 0.227-0.159 0.362-0.205 0.155-0.050 0.32-0.075 0.486-0.074 0.084-0 0.169 0.006 0.252 0.017 0.074 0.010 0.146 0.027 0.216 0.050 0.063 0.021 0.124 0.047 0.181 0.078 0.056 0.031 0.108 0.065 0.158 0.103l-0.087 0.122c-0.007 0.011-0.017 0.021-0.029 0.027s-0.027 0.010-0.041 0.010c-0.020-0.001-0.040-0.006-0.056-0.016-0.027-0.013-0.056-0.028-0.089-0.047-0.038-0.021-0.079-0.039-0.121-0.053-0.054-0.019-0.11-0.033-0.167-0.044-0.076-0.012-0.153-0.018-0.23-0.017-0.12-0.001-0.238 0.017-0.35 0.055-0.101 0.035-0.192 0.088-0.266 0.156-0.075 0.071-0.132 0.155-0.169 0.246-0.081 0.214-0.081 0.445 0 0.659 0.040 0.093 0.101 0.178 0.181 0.249 0.074 0.068 0.164 0.121 0.265 0.156 0.115 0.034 0.237 0.047 0.359 0.039z"></path>
<path  d="M36.659 18.567h0.989v0.225h-1.292v-1.976h0.31l-0.007 1.75z"></path>
<path  d="M38.678 18.792h-0.31v-1.976h0.31v1.976z"></path>
<path  d="M39.83 16.826c0.018 0.009 0.034 0.021 0.047 0.036l1.324 1.489c-0.002-0.023-0.002-0.047 0-0.070 0-0.022 0-0.044 0-0.064v-1.408h0.27v1.984h-0.156c-0.023 0.002-0.046-0.002-0.067-0.011-0.019-0.010-0.035-0.023-0.049-0.038l-1.323-1.488c0 0.023 0 0.045 0 0.067s0 0.042 0 0.061v1.408h-0.259v-1.976h0.161c0.017 0 0.035 0.003 0.051 0.009z"></path>
<path  d="M43.753 16.817v0.217h-1.098v0.652h0.89v0.21h-0.89v0.674h1.098v0.217h-1.417v-1.971h1.417z"></path>
<path  d="M11.286 4.616l13.757 3.372v11.818l-13.757-3.371v-11.819zM10.404 3.609v13.401l15.52 3.806v-13.399l-15.52-3.807z"></path>
<path  d="M18.722 27.036l-15.522-3.809v-13.399l15.522 3.807v13.401z"></path>
<path  d="M10.661 4.465l13.578 3.33-5.774 4.987-13.58-3.332 5.776-4.985zM10.404 3.609l-7.204 6.219 15.522 3.807 7.202-6.219-15.52-3.807z"></path>
<path  d="M19.595 26.282l6.329-5.465-6.329-1.553v7.018z"></path>
</symbol>
<symbol id="icon-Logo" viewBox="-20 15 145 32">
<path d="M38 7.71313L45.0078 14.3473L32 14.3396V46.5269H66V34.2202L73 40.8469V7.71313H38ZM65.6924 33.4415L45.8226 14.6311H65.6924V33.4415ZM59.5231 41.8187H37.3801V20.1711H38.9453V40.3528H59.5231V41.8187ZM42.6089 50.8123L41.791 52.4968L40.9731 50.8123H40.2871L41.481 53.0583V54.3669H42.1011V53.0583L43.2925 50.8123H42.6089ZM43.6367 54.3669L43.9248 53.5393H45.3018L45.5923 54.3669H46.2368L44.8916 50.8123H44.3374L42.9946 54.3669H43.6367ZM44.6133 51.5667L45.1284 53.0413H44.0981L44.6133 51.5667ZM47.8701 52.9558C47.7806 53.0925 47.7358 53.2431 47.7358 53.4075C47.7358 53.707 47.8408 53.9503 48.0508 54.1375C48.2624 54.323 48.5439 54.4158 48.8955 54.4158C49.2471 54.4158 49.5498 54.3206 49.8037 54.1301L50.0039 54.3669H50.6924L50.1699 53.7493C50.375 53.4693 50.4775 53.1104 50.4775 52.6726H49.9624C49.9624 52.9119 49.9128 53.1292 49.8135 53.3245L49.1274 52.5139L49.3691 52.3381C49.54 52.2144 49.6629 52.0907 49.7378 51.967C49.8127 51.8417 49.8501 51.705 49.8501 51.5569C49.8501 51.3323 49.7671 51.1443 49.6011 50.9929C49.4367 50.8399 49.2251 50.7634 48.9663 50.7634C48.6798 50.7634 48.452 50.8448 48.2827 51.0076C48.1134 51.1687 48.0288 51.3884 48.0288 51.6667C48.0288 51.7807 48.0557 51.8987 48.1094 52.0208C48.1647 52.1428 48.2616 52.2909 48.3999 52.4651C48.1362 52.6539 47.9596 52.8175 47.8701 52.9558ZM49.4741 53.7419C49.3 53.8754 49.1128 53.9421 48.9126 53.9421C48.7352 53.9421 48.5936 53.8909 48.4878 53.7883C48.382 53.6858 48.3291 53.5523 48.3291 53.3879C48.3291 53.1975 48.4268 53.0282 48.6221 52.8801L48.6978 52.8264L49.4741 53.7419ZM48.8369 52.1672C48.6693 51.9605 48.5854 51.7888 48.5854 51.6521C48.5854 51.5333 48.6196 51.4348 48.688 51.3567C48.7563 51.2786 48.8483 51.2395 48.9639 51.2395C49.0713 51.2395 49.16 51.2729 49.23 51.3396C49.3 51.4047 49.335 51.4836 49.335 51.5764C49.335 51.7164 49.2845 51.8311 49.1836 51.9207L49.1079 51.9817L48.8369 52.1672ZM54.623 54.0984C54.8672 53.8852 55.0072 53.5889 55.043 53.2097H54.4277C54.3952 53.4636 54.3179 53.6451 54.1958 53.7542C54.0737 53.8632 53.8914 53.9177 53.6489 53.9177C53.3836 53.9177 53.1818 53.8168 53.0435 53.615C52.9067 53.4132 52.8384 53.1202 52.8384 52.7361V52.4211C52.8416 52.0419 52.9149 51.7546 53.0581 51.5593C53.203 51.3624 53.4097 51.2639 53.6782 51.2639C53.9093 51.2639 54.0843 51.3209 54.2031 51.4348C54.3236 51.5471 54.3984 51.731 54.4277 51.9866H55.043C55.0039 51.5976 54.8647 51.2965 54.6255 51.0833C54.3862 50.87 54.0705 50.7634 53.6782 50.7634C53.3869 50.7634 53.1297 50.8326 52.9067 50.9709C52.6854 51.1093 52.5153 51.3062 52.3965 51.5618C52.2777 51.8173 52.2183 52.1127 52.2183 52.448V52.78C52.2231 53.1072 52.2842 53.3945 52.4014 53.6418C52.5186 53.8892 52.6846 54.0805 52.8994 54.2156C53.1159 54.349 53.3657 54.4158 53.6489 54.4158C54.0542 54.4158 54.3789 54.31 54.623 54.0984ZM58.2534 53.6003C58.3739 53.3367 58.4341 53.0307 58.4341 52.6824V52.4846C58.4325 52.1379 58.3706 51.8344 58.2485 51.574C58.1265 51.3119 57.9531 51.1117 57.7285 50.9734C57.5055 50.8334 57.2492 50.7634 56.9595 50.7634C56.6698 50.7634 56.4126 50.8342 56.188 50.9758C55.965 51.1158 55.7917 51.3184 55.668 51.5837C55.5459 51.849 55.4849 52.155 55.4849 52.5017V52.7019C55.4865 53.0421 55.5483 53.3424 55.6704 53.6028C55.7941 53.8632 55.9683 54.0642 56.1929 54.2058C56.4191 54.3458 56.6763 54.4158 56.9644 54.4158C57.2557 54.4158 57.5129 54.3458 57.7358 54.2058C57.9604 54.0642 58.133 53.8624 58.2534 53.6003ZM57.5918 51.5911C57.7415 51.801 57.8164 52.1029 57.8164 52.4968V52.6824C57.8164 53.0828 57.7423 53.3871 57.5942 53.5955C57.4478 53.8038 57.2378 53.908 56.9644 53.908C56.6942 53.908 56.4826 53.8013 56.3296 53.5881C56.1782 53.3749 56.1025 53.073 56.1025 52.6824V52.4773C56.1058 52.0948 56.1823 51.7994 56.332 51.5911C56.4834 51.3811 56.6925 51.2761 56.9595 51.2761C57.2329 51.2761 57.4437 51.3811 57.5918 51.5911Z" />
</symbol>
<symbol id="icon-smartphone" viewBox="100 0 20 32">
<path  d="M17 0h-14c-1.654 0-3 1.346-3 3v26c0 1.654 1.346 3 3 3h14c1.654 0 3-1.346 3-3v-26c0-1.654-1.346-3-3-3zM3 2h14c0.552 0 1 0.448 1 1v21h-16v-21c0-0.552 0.448-1 1-1zM17 30h-14c-0.552 0-1-0.448-1-1v-3h16v3c0 0.552-0.448 1-1 1z"></path>
<path  d="M4.707 27.478c0.391 0.365 0.391 0.956 0 1.321s-1.024 0.365-1.414 0c-0.391-0.365-0.391-0.956 0-1.321s1.024-0.365 1.414 0z"></path>
</symbol>
<symbol id="icon-Logo-1" viewBox="-55 10 150 35">
<path d="M17.1136 3.64766H16.977C16.7671 3.63494 16.5571 3.62985 16.3471 3.62477H16.3471H16.3269H15.8918C15.4946 3.62477 15.0898 3.63494 14.6876 3.65528C14.6573 3.65308 14.6269 3.65308 14.5966 3.65528C10.9522 3.86177 7.38171 4.77265 4.08049 6.33806L3.6479 6.54658V28.6877L4.65979 28.3444C5.54773 28.0393 6.49384 27.7646 7.47285 27.5103C10.1193 26.8309 12.8367 26.4699 15.568 26.4347V29.3438C15.2062 29.3463 14.8546 29.3565 14.503 29.3743H14.4195C12.3175 29.4896 10.2317 29.8098 8.19129 30.3304C5.60716 30.9774 3.11433 31.9488 0.771606 33.2217V4.82502C3.20469 3.40588 5.82533 2.34001 8.55557 1.6591C10.9527 1.04019 13.4169 0.722442 15.8918 0.713135H16.3193C16.8303 0.725849 17.3287 0.748736 17.7967 0.784336C19.0297 0.870911 20.2528 1.06576 21.4521 1.36666V4.22998C20.2874 3.95864 19.1032 3.78009 17.9105 3.69597C17.8863 3.69392 17.8621 3.69186 17.8379 3.68979C17.5911 3.66874 17.344 3.64766 17.1136 3.64766ZM22.1528 6.57452C22.7877 6.62283 23.4455 6.64572 24.1108 6.64572C26.7125 6.63621 29.3031 6.30397 31.8239 5.65653C34.4068 5.0071 36.8986 4.03491 39.2411 2.7627V30.6533C36.8067 32.0716 34.1853 33.1375 31.4546 33.8193C29.0571 34.4358 26.5931 34.7527 24.1184 34.7627C22.2433 34.7778 20.3737 34.5574 18.553 34.1066V6.03542C18.983 6.1346 19.4257 6.22614 19.876 6.30243C20.6147 6.42703 21.3939 6.51857 22.1528 6.57452ZM36.3471 6.79067L35.3352 7.13142C34.4042 7.44419 33.4657 7.72391 32.5221 7.97312C29.7749 8.67909 26.9514 9.04123 24.1158 9.05131C23.4556 9.05131 22.8485 9.03351 22.2616 8.99537L21.4546 8.94197V29.031V31.7188L22.1477 31.7799C22.7903 31.8358 23.4531 31.8638 24.1209 31.8638C26.3544 31.8543 28.5781 31.5664 30.7412 31.0068C32.5223 30.56 34.2552 29.9374 35.9145 29.1479L36.3471 28.9394V6.79067Z" />
<path d="M2.73713 42.9255C2.59166 42.7746 2.41629 42.6562 2.22236 42.5777C2.02844 42.4993 1.82029 42.4627 1.61141 42.4703C1.38879 42.4674 1.16781 42.5089 0.961267 42.5924C0.771901 42.6678 0.599767 42.7812 0.455322 42.9255C0.312451 43.0703 0.201292 43.2436 0.128988 43.4341C0.0496792 43.6338 0.0101425 43.8472 0.0126205 44.0622V47.8562C0.00357283 48.1236 0.0545882 48.3895 0.161874 48.6344C0.251433 48.8288 0.380725 49.0021 0.541333 49.1429C0.692953 49.2706 0.870978 49.3627 1.06246 49.4125C1.24694 49.4643 1.43755 49.4909 1.62911 49.4913C1.84041 49.4934 2.04953 49.4483 2.24131 49.3591C2.43095 49.2761 2.60277 49.1569 2.74725 49.0082C2.88814 48.8608 3.00052 48.6883 3.07865 48.4996C3.15973 48.3083 3.20105 48.1023 3.20007 47.8944V47.4697H2.20842V47.8079C2.21137 47.9234 2.1916 48.0383 2.15024 48.1461C2.11794 48.2269 2.06877 48.2997 2.00604 48.3597C1.94461 48.4094 1.87416 48.4465 1.79861 48.4691C1.73164 48.4914 1.6617 48.5034 1.59117 48.5047C1.50263 48.515 1.41296 48.5016 1.33122 48.4659C1.24948 48.4301 1.17858 48.3734 1.1257 48.3012C1.03222 48.1488 0.986395 47.9716 0.994154 47.7927V44.2555C0.988002 44.0593 1.02969 43.8646 1.11558 43.6884C1.16706 43.6083 1.2399 43.5444 1.32578 43.5039C1.41166 43.4635 1.50713 43.4481 1.60129 43.4595C1.68676 43.4565 1.7717 43.4743 1.84881 43.5115C1.92591 43.5487 1.99289 43.6042 2.04399 43.6731C2.15496 43.8188 2.21298 43.9983 2.20842 44.1817V44.5098H3.18995V44.1232C3.19195 43.8962 3.15073 43.671 3.06853 43.4595C2.99527 43.2608 2.88251 43.0791 2.73713 42.9255V42.9255Z" />
<path d="M8.62892 42.8822C8.31271 42.6152 7.91362 42.4677 7.50066 42.4652C7.29868 42.4661 7.09838 42.5022 6.9087 42.572C6.71613 42.641 6.53841 42.7463 6.38505 42.8822C6.22076 43.0299 6.08968 43.2111 6.00053 43.4137C5.90063 43.6455 5.85146 43.8961 5.85634 44.1486V47.7875C5.8495 48.0435 5.89873 48.2979 6.00053 48.5326C6.09028 48.7283 6.22152 48.9019 6.38505 49.0412C6.53665 49.1819 6.71468 49.2909 6.9087 49.3616C7.09838 49.4314 7.29868 49.4675 7.50066 49.4684C7.70269 49.468 7.90307 49.4319 8.09262 49.3616C8.28995 49.2899 8.47195 49.1812 8.62892 49.0412C8.7871 48.8993 8.91454 48.7261 9.00332 48.5326C9.10512 48.2979 9.15435 48.0435 9.14751 47.7875V44.1486C9.15239 43.8961 9.10322 43.6455 9.00332 43.4137C8.91505 43.2132 8.78775 43.0325 8.62892 42.8822V42.8822ZM8.16598 47.7875C8.17434 47.8845 8.16095 47.9821 8.1268 48.0732C8.09265 48.1643 8.03861 48.2466 7.96866 48.3139C7.83768 48.4238 7.67251 48.4839 7.50193 48.4839C7.33135 48.4839 7.16617 48.4238 7.03519 48.3139C6.96524 48.2466 6.9112 48.1643 6.87705 48.0732C6.8429 47.9821 6.82952 47.8845 6.83787 47.7875V44.1486C6.82952 44.0516 6.8429 43.954 6.87705 43.8629C6.9112 43.7718 6.96524 43.6896 7.03519 43.6222C7.16617 43.5124 7.33135 43.4522 7.50193 43.4522C7.67251 43.4522 7.83768 43.5124 7.96866 43.6222C8.03861 43.6896 8.09265 43.7718 8.1268 43.8629C8.16095 43.954 8.17434 44.0516 8.16598 44.1486V47.7875Z" />
<path d="M16.3673 49.4125V42.5238H15.4136L14.1614 46.1703H14.1437L12.8813 42.5238H11.9377V49.4125H12.9218V45.2218H12.9395L13.9033 48.1843H14.3941L15.3655 45.2218H15.3832V49.4125H16.3673Z" />
<path d="M21.9581 43.0068C21.8065 42.8368 21.6153 42.7075 21.4015 42.6304C21.1712 42.5555 20.9302 42.5194 20.6881 42.5236H19.226V49.4124H20.2075V46.722H20.7134C21.0197 46.7359 21.3244 46.6712 21.5988 46.5338C21.822 46.4099 22.0081 46.2281 22.1377 46.0074C22.2512 45.8242 22.3277 45.6203 22.3628 45.4073C22.4014 45.1481 22.4192 44.8862 22.4159 44.6241C22.4255 44.2933 22.3932 43.9626 22.3198 43.64C22.2543 43.4016 22.1299 43.1838 21.9581 43.0068V43.0068ZM21.4521 45.1072C21.4479 45.232 21.4168 45.3543 21.361 45.4658C21.3049 45.5717 21.2162 45.6565 21.1081 45.7074C20.9627 45.7724 20.8041 45.802 20.6451 45.7938H20.1974V43.4518H20.7033C20.8557 43.4443 21.0075 43.474 21.146 43.5383C21.2475 43.5965 21.3281 43.6855 21.3762 43.7926C21.4299 43.9136 21.4591 44.0441 21.4622 44.1765C21.4622 44.3215 21.4622 44.4741 21.4622 44.6343C21.4622 44.7945 21.4723 44.9598 21.4622 45.1072H21.4521Z" />
<path d="M26.6077 42.5238H25.8032L24.2854 49.4125H25.2669L25.5553 47.9326H26.8935L27.1819 49.4125H28.1635L26.6077 42.5238ZM25.702 46.9942L26.1852 44.4971H26.2029L26.6836 46.9942H25.702Z" />
<path d="M32.9497 46.6738H32.932L31.4496 42.5238H30.506V49.4125H31.4875V45.2701H31.5078L33.0079 49.4125H33.9312V42.5238H32.9497V46.6738Z" />
<path d="M38.9476 42.5238L38.1583 45.2625H38.1381L37.3488 42.5238H36.3091L37.6574 46.5009V49.4125H38.639V46.5009L39.9873 42.5238H38.9476Z" />
<path d="M0 51.3577H0.473058V52.6851H0.794333V51.3577H1.26486V51.0856H0V51.3577Z" />
<path d="M3.97672 51.0856L3.35693 52.6851H3.69845L3.82999 52.3214H4.46748L4.60409 52.6851H4.95319L4.31823 51.0856H3.97672ZM3.92612 52.0519L4.14368 51.4594L4.36123 52.0519H3.92612Z" />
<path d="M7.90793 52.0953H8.27727V52.3012C8.16941 52.3877 8.03576 52.4352 7.89781 52.436C7.8333 52.4396 7.76886 52.4277 7.70988 52.4011C7.65091 52.3746 7.59911 52.3342 7.55883 52.2834C7.47402 52.1617 7.43217 52.0149 7.43993 51.8664C7.43993 51.5104 7.59424 51.3324 7.90034 51.3324C7.98091 51.3244 8.06168 51.3456 8.12804 51.3922C8.19439 51.4389 8.24194 51.5079 8.26209 51.5867L8.57831 51.5257C8.51001 51.2129 8.28486 51.0552 7.90034 51.0552C7.69468 51.0497 7.4947 51.1234 7.34127 51.2612C7.26069 51.3408 7.19834 51.4371 7.15858 51.5433C7.11882 51.6496 7.10261 51.7633 7.11107 51.8766C7.10175 52.0954 7.17493 52.3097 7.31598 52.4767C7.39434 52.5575 7.4892 52.6202 7.59401 52.6606C7.69883 52.701 7.8111 52.7181 7.92311 52.7106C8.17338 52.7176 8.41652 52.6264 8.60108 52.4564V51.8257H7.90793V52.0953Z" />
<path d="M11.9226 51.0856H11.5988V52.6851H12.7194V52.413H11.9226V51.0856Z" />
<path d="M15.3175 51.0856H14.9937V52.6851H15.3175V51.0856Z" />
<path d="M18.6365 52.1536L17.9813 51.0856H17.6676V52.6851H17.9686V51.6399L18.6112 52.6851H18.9325V51.0856H18.6365V52.1536Z" />
<path d="M21.6368 51.9807H22.4337V51.7086H21.6368V51.3577H22.4944V51.0856H21.313V52.6851H22.5273V52.413H21.6368V51.9807Z" />
<path d="M28.9122 51.7162H28.2823V51.0856H27.9611V52.6851H28.2823V51.9858H28.9122V52.6851H29.2335V51.0856H28.9122V51.7162Z" />
<path d="M31.9302 51.9807H32.7296V51.7086H31.9302V51.3577H32.7903V51.0856H31.6089V52.6851H32.8206V52.413H31.9302V51.9807Z" />
<path d="M36.0233 51.9807C36.3015 51.9375 36.4432 51.79 36.4432 51.5357C36.4513 51.4677 36.441 51.3987 36.4134 51.3361C36.3858 51.2735 36.3419 51.2194 36.2863 51.1797C36.1415 51.107 35.9799 51.0745 35.8183 51.0856H35.1404V52.6851H35.4617V52.0163H35.5249C35.5934 52.0121 35.6619 52.0243 35.7247 52.0519C35.7717 52.0809 35.8108 52.1211 35.8386 52.1689L36.1877 52.6775H36.5722L36.3774 52.3647C36.2913 52.2103 36.1699 52.0787 36.0233 51.9807V51.9807ZM35.6994 51.7595H35.4617V51.3577H35.7146C35.8248 51.3488 35.9357 51.3618 36.041 51.3959C36.0644 51.4165 36.0828 51.4422 36.095 51.471C36.1072 51.4998 36.1127 51.531 36.1113 51.5623C36.1098 51.5936 36.1014 51.6241 36.0866 51.6516C36.0718 51.6792 36.051 51.703 36.0258 51.7214C35.9202 51.7537 35.8096 51.7667 35.6994 51.7595V51.7595Z" />
<path d="M39.1096 51.9807H39.9064V51.7086H39.1096V51.3577H39.9697V51.0856H38.7858V52.6851H40V52.413H39.1096V51.9807Z" />
</symbol>
</defs>
</svg>
